<svg width="38" height="41" viewBox="0 0 38 41" fill="none" xmlns="http://www.w3.org/2000/svg">
<path d="M25.4437 34.375C25.4437 37.9366 22.5569 40.8234 18.9953 40.8234C15.4337 40.8234 12.5469 37.9366 12.5469 34.375H25.4437Z" fill="#FF9E00"/>
<path d="M15.1094 3.88863C15.1094 1.74108 16.8505 0 18.998 0C21.1456 0 22.8866 1.74108 22.8866 3.88863H15.1105H15.1094Z" fill="#FF9E00"/>
<path d="M2.99918 19.0638C2.99918 9.87366 10.7465 2.49366 20.0656 3.09704C28.5707 3.64746 35.0018 11.0896 35.0018 19.6119V26.6119L37.724 31.3262C38.5082 32.685 37.5282 34.3835 35.9587 34.3835H2.04112C0.472773 34.3835 -0.50831 32.685 0.275865 31.3262L2.99803 26.6119L2.99918 19.0638Z" fill="#FFC000"/>
</svg>
