<svg width="26" height="26" viewBox="0 0 26 26" fill="none" xmlns="http://www.w3.org/2000/svg">
<path d="M18.4737 20V22.6667C18.4737 22.8444 18.5421 23 18.6789 23.1333C18.8158 23.2667 18.9754 23.3333 19.1579 23.3333C19.3404 23.3333 19.5 23.2667 19.6368 23.1333C19.7737 23 19.8421 22.8444 19.8421 22.6667V20H22.5789C22.7614 20 22.9211 19.9333 23.0579 19.8C23.1947 19.6667 23.2632 19.5111 23.2632 19.3333C23.2632 19.1556 23.1947 19 23.0579 18.8667C22.9211 18.7333 22.7614 18.6667 22.5789 18.6667H19.8421V16C19.8421 15.8222 19.7737 15.6667 19.6368 15.5333C19.5 15.4 19.3404 15.3333 19.1579 15.3333C18.9754 15.3333 18.8158 15.4 18.6789 15.5333C18.5421 15.6667 18.4737 15.8222 18.4737 16V18.6667H15.7368C15.5544 18.6667 15.3947 18.7333 15.2579 18.8667C15.1211 19 15.0526 19.1556 15.0526 19.3333C15.0526 19.5111 15.1211 19.6667 15.2579 19.8C15.3947 19.9333 15.5544 20 15.7368 20H18.4737ZM19.1579 26C17.2649 26 15.6515 25.3498 14.3178 24.0493C12.984 22.7489 12.3167 21.1769 12.3158 19.3333C12.3158 17.4889 12.9831 15.9169 14.3178 14.6173C15.6525 13.3178 17.2658 12.6676 19.1579 12.6667C21.0509 12.6667 22.6647 13.3169 23.9994 14.6173C25.334 15.9178 26.0009 17.4898 26 19.3333C26 21.1778 25.3327 22.7502 23.998 24.0507C22.6633 25.3511 21.05 26.0009 19.1579 26ZM0 20.6667V8.66667C0 8.24444 0.0971576 7.84444 0.291473 7.46667C0.485789 7.08889 0.753544 6.77778 1.09474 6.53333L9.30526 0.533333C9.55614 0.355556 9.81842 0.222222 10.0921 0.133333C10.3658 0.0444445 10.6509 0 10.9474 0C11.2439 0 11.5289 0.0444445 11.8026 0.133333C12.0763 0.222222 12.3386 0.355556 12.5895 0.533333L20.8684 6.6C21.0281 6.71111 21.148 6.85556 21.2283 7.03333C21.3086 7.21111 21.3483 7.4 21.3474 7.6C21.3474 7.97778 21.216 8.29467 20.9533 8.55067C20.6905 8.80667 20.3658 8.93422 19.9789 8.93333C19.8193 8.93333 19.6711 8.91111 19.5342 8.86667C19.3974 8.82222 19.2719 8.75556 19.1579 8.66667L10.9474 2.66667L2.73684 8.66667V20.6667H8.21053C8.59825 20.6667 8.92347 20.7947 9.18621 21.0507C9.44895 21.3067 9.57986 21.6231 9.57895 22C9.57895 22.3778 9.44758 22.6947 9.18484 22.9507C8.9221 23.2067 8.59733 23.3342 8.21053 23.3333H2.73684C1.98421 23.3333 1.34014 23.0724 0.804631 22.5507C0.269123 22.0289 0.000912281 21.4009 0 20.6667Z" fill="white"/>
</svg>
