<svg width="30" height="30" viewBox="0 0 30 30" fill="none" xmlns="http://www.w3.org/2000/svg">
<path d="M25 10C24.5278 10 24.1322 9.84 23.8133 9.52C23.4933 9.20111 23.3333 8.80556 23.3333 8.33333V6.66667H21.6667C21.1944 6.66667 20.7989 6.50722 20.48 6.18833C20.16 5.86833 20 5.47222 20 5C20 4.52778 20.16 4.13167 20.48 3.81167C20.7989 3.49278 21.1944 3.33333 21.6667 3.33333H23.3333V1.66667C23.3333 1.19444 23.4933 0.798333 23.8133 0.478333C24.1322 0.159444 24.5278 0 25 0C25.4722 0 25.8678 0.159444 26.1867 0.478333C26.5067 0.798333 26.6667 1.19444 26.6667 1.66667V3.33333H28.3333C28.8056 3.33333 29.2011 3.49278 29.52 3.81167C29.84 4.13167 30 4.52778 30 5C30 5.47222 29.84 5.86833 29.52 6.18833C29.2011 6.50722 28.8056 6.66667 28.3333 6.66667H26.6667V8.33333C26.6667 8.80556 26.5067 9.20111 26.1867 9.52C25.8678 9.84 25.4722 10 25 10ZM6.66667 23.3333H23.3333C23.6667 23.3333 23.9167 23.1806 24.0833 22.875C24.25 22.5694 24.2222 22.2778 24 22L19.4167 15.875C19.25 15.6528 19.0278 15.5417 18.75 15.5417C18.4722 15.5417 18.25 15.6528 18.0833 15.875L13.75 21.6667L10.6667 17.5417C10.5 17.3194 10.2778 17.2083 10 17.2083C9.72222 17.2083 9.5 17.3194 9.33333 17.5417L6 22C5.77778 22.2778 5.75 22.5694 5.91667 22.875C6.08333 23.1806 6.33333 23.3333 6.66667 23.3333ZM3.33333 30C2.41667 30 1.63167 29.6739 0.978333 29.0217C0.326111 28.3683 0 27.5833 0 26.6667V3.33333C0 2.41667 0.326111 1.63167 0.978333 0.978333C1.63167 0.326111 2.41667 0 3.33333 0H16.6667V8.33333C16.6667 8.80556 16.8267 9.20111 17.1467 9.52C17.4656 9.84 17.8611 10 18.3333 10H20V11.6667C20 12.1389 20.16 12.5344 20.48 12.8533C20.7989 13.1733 21.1944 13.3333 21.6667 13.3333H30V26.6667C30 27.5833 29.6739 28.3683 29.0217 29.0217C28.3683 29.6739 27.5833 30 26.6667 30H3.33333Z" fill="black"/>
</svg>
