<svg width="32" height="32" viewBox="0 0 32 32" fill="none" xmlns="http://www.w3.org/2000/svg">
<path d="M29.4634 9.15956L22.7902 2.61145L24.4683 0.935445C25.0927 0.311815 25.8409 0 26.713 0C27.584 0 28.3187 0.311815 28.9171 0.935445L31.1024 3.15712C31.7008 3.75477 32 4.48234 32 5.33983C32 6.19732 31.7008 6.92489 31.1024 7.52253L29.4634 9.15956ZM3.12195 32C2.26341 32 1.52819 31.6944 0.916292 31.0833C0.305431 30.4731 0 29.7393 0 28.8819V7.05481C0 6.19732 0.305431 5.463 0.916292 4.85184C1.52819 4.24172 2.26341 3.93666 3.12195 3.93666H17.0537L7.60976 13.3691C7.16748 13.8108 6.82927 14.3175 6.59512 14.8892C6.36098 15.4608 6.2439 16.0585 6.2439 16.6821V22.6456C6.2439 23.503 6.54985 24.2368 7.16176 24.847C7.77262 25.4581 8.50732 25.7637 9.36585 25.7637H15.3366C15.961 25.7637 16.5593 25.6468 17.1317 25.4129C17.7041 25.1791 18.2114 24.8412 18.6537 24.3995L28.0976 14.9281V28.8819C28.0976 29.7393 27.7921 30.4731 27.1813 31.0833C26.5694 31.6944 25.8341 32 24.9756 32H3.12195ZM10.9268 22.6456C10.4846 22.6456 10.1141 22.4964 9.81541 22.1981C9.51571 21.8988 9.36585 21.5282 9.36585 21.0865V17.3057C9.36585 16.89 9.4439 16.4934 9.6 16.1161C9.7561 15.7399 9.97723 15.4088 10.2634 15.123L20.5659 4.83313L27.239 11.3812L16.8976 21.7101C16.6114 21.9959 16.2799 22.2236 15.9032 22.393C15.5255 22.5614 15.1285 22.6456 14.7122 22.6456H10.9268Z" fill="#828282"/>
</svg>
